<?xml version="1.0" standalone="no"?>
<!DOCTYPE svg PUBLIC "-//W3C//DTD SVG 20010904//EN"
 "http://www.w3.org/TR/2001/REC-SVG-20010904/DTD/svg10.dtd">
<svg version="1.0" xmlns="http://www.w3.org/2000/svg"
 width="640.000000pt" height="640.000000pt" viewBox="0 0 640.000000 640.000000"
 preserveAspectRatio="xMidYMid meet">
<metadata>
Created by potrace 1.16, written by Peter Selinger 2001-2019
</metadata>
<g transform="translate(0.000000,640.000000) scale(0.100000,-0.100000)"
fill="#000000" stroke="none">
<path d="M0 3200 l0 -3200 3200 0 3200 0 0 3200 0 3200 -3200 0 -3200 0 0
-3200z m3245 2780 c-3 -5 0 -7 9 -4 37 14 108 -51 126 -115 5 -20 11 -174 12
-343 2 -168 6 -310 10 -314 4 -4 14 -2 21 5 8 6 23 9 33 5 14 -4 16 -3 5 4
-10 7 38 48 200 169 264 197 256 192 310 199 148 20 249 -101 208 -251 -11
-40 -78 -115 -102 -115 -7 0 -18 -9 -25 -21 -8 -12 -19 -18 -28 -15 -8 3 -13
2 -9 -3 8 -15 -51 -52 -72 -45 -13 4 -15 3 -4 -4 10 -7 -33 -44 -178 -153
-106 -79 -198 -143 -206 -141 -10 2 -13 -3 -8 -14 5 -14 3 -16 -12 -10 -11 4
-16 4 -12 0 3 -4 -19 -27 -51 -50 -31 -24 -62 -48 -69 -54 -9 -7 -11 -151 -10
-585 1 -496 3 -578 16 -588 11 -9 13 -9 8 0 -9 14 9 27 188 132 77 45 192 114
255 152 63 39 125 75 137 82 11 7 77 45 145 86 67 41 139 83 158 94 19 12 37
23 40 26 3 4 14 11 25 17 15 8 22 26 27 70 4 32 12 96 18 141 6 45 19 173 30
285 42 433 50 488 72 488 5 0 7 4 4 9 -7 11 30 44 79 70 42 22 125 29 125 10
0 -5 4 -8 10 -4 16 10 92 -44 86 -61 -3 -8 -2 -12 4 -9 16 10 41 -54 41 -103
0 -26 0 -60 0 -75 0 -16 -5 -65 -11 -110 -16 -118 -39 -356 -40 -398 0 -33 3
-37 24 -35 13 0 22 5 18 10 -3 5 2 6 12 3 9 -4 15 -3 11 2 -7 13 62 54 76 45
8 -4 9 -3 5 4 -4 7 9 20 31 32 21 12 56 32 78 45 22 14 46 23 52 20 7 -2 12 0
10 6 -1 6 17 20 40 33 23 13 71 42 107 65 38 25 70 40 77 35 7 -4 9 -3 5 4 -7
12 38 24 89 24 70 0 173 -80 159 -124 -4 -14 -2 -18 5 -14 8 5 11 -10 11 -48
0 -54 -15 -106 -32 -106 -4 0 -8 -7 -8 -14 0 -21 -66 -69 -81 -60 -7 4 -9 3
-6 -4 8 -12 -119 -86 -133 -77 -5 3 -18 1 -27 -5 -15 -9 -14 -10 7 -4 23 6 24
5 11 -10 -8 -10 -23 -15 -32 -13 -11 3 -17 0 -16 -7 1 -6 -6 -10 -15 -10 -10
1 -16 -1 -13 -5 7 -12 -54 -43 -68 -35 -6 4 -9 4 -5 -1 11 -11 -60 -58 -74
-49 -6 4 -8 3 -5 -2 3 -6 -16 -22 -42 -37 -82 -46 -82 -51 1 -82 40 -16 78
-31 83 -35 6 -5 26 -13 45 -18 31 -9 129 -48 212 -85 15 -6 24 -15 22 -19 -3
-4 1 -5 9 -2 20 7 157 -58 184 -87 30 -33 43 -72 43 -129 0 -62 -27 -133 -47
-126 -8 3 -12 2 -9 -3 14 -22 -69 -60 -135 -63 -20 -1 -83 18 -151 45 -64 26
-121 47 -127 47 -6 0 -11 5 -11 10 0 6 -7 10 -15 10 -8 0 -34 8 -58 19 -23 10
-62 26 -87 36 -25 10 -69 29 -98 42 -29 13 -56 23 -60 23 -4 1 -25 9 -47 20
-22 11 -47 20 -55 20 -13 0 -13 1 0 11 12 8 11 9 -5 5 -11 -3 -57 10 -104 28
l-83 34 -89 -54 c-49 -29 -93 -54 -97 -55 -4 -1 -25 -14 -47 -29 -22 -15 -74
-46 -115 -71 -41 -24 -78 -48 -81 -53 -4 -5 -14 -6 -24 -3 -9 4 -13 3 -10 -3
3 -5 -5 -14 -17 -21 -13 -6 -61 -35 -108 -63 -200 -123 -211 -129 -223 -117
-6 6 -15 11 -21 11 -5 0 -2 -6 9 -13 10 -8 14 -16 9 -19 -55 -34 -87 -47 -97
-42 -7 4 -9 3 -4 -1 7 -9 -31 -39 -70 -55 -30 -13 -29 -25 5 -43 45 -23 140
-80 262 -155 63 -39 126 -78 140 -85 52 -28 336 -200 365 -220 16 -12 34 -22
40 -23 7 -1 48 -24 92 -52 l80 -50 84 34 c47 18 93 31 104 28 16 -4 17 -3 5 5
-13 10 -13 11 0 11 8 0 33 9 55 20 22 11 43 19 47 20 4 0 31 11 60 24 29 13
96 40 148 61 52 20 109 44 125 51 17 8 80 33 140 57 150 59 206 55 283 -24 65
-67 67 -175 5 -249 -30 -36 -118 -84 -140 -76 -8 3 -12 2 -9 -3 6 -8 -210 -97
-231 -95 -7 1 -10 -3 -6 -9 4 -6 -2 -8 -15 -5 -12 4 -20 3 -18 -1 6 -9 -157
-73 -175 -68 -8 2 -10 2 -5 -1 5 -3 -1 -10 -14 -17 -22 -12 -21 -13 39 -50 33
-21 61 -40 61 -42 0 -2 -5 -1 -12 3 -7 4 -8 3 -4 -5 4 -6 11 -9 16 -6 13 8 81
-36 73 -48 -3 -6 -1 -7 5 -3 17 11 75 -26 59 -37 -8 -6 -7 -7 5 -3 20 6 224
-110 220 -125 -1 -6 2 -8 7 -4 17 10 58 -24 91 -73 25 -38 30 -55 30 -104 0
-41 -3 -57 -11 -52 -8 4 -9 -1 -4 -16 11 -35 -70 -106 -130 -116 -85 -12 -109
-3 -314 124 -19 11 -21 16 -10 24 10 6 7 7 -10 3 -17 -5 -22 -4 -16 5 5 9 4
11 -3 6 -17 -10 -167 75 -167 95 0 7 -7 14 -15 16 -13 4 -13 3 0 -6 27 -19 -2
-11 -36 10 -19 11 -32 24 -30 28 3 4 -3 7 -12 7 -9 1 -25 4 -34 9 -26 11 -26
-6 -3 -230 8 -77 19 -171 25 -210 9 -65 12 -112 12 -191 0 -38 -29 -97 -42
-89 -6 3 -7 -1 -4 -9 7 -17 -69 -72 -85 -61 -6 3 -11 1 -11 -6 0 -8 -16 -10
-52 -7 -59 5 -137 47 -145 79 -3 10 -9 19 -13 19 -19 0 -28 62 -70 490 -11
113 -22 219 -25 235 -7 42 -15 120 -19 185 -4 64 -2 62 -206 180 -69 40 -136
80 -149 89 -33 22 -33 22 -151 92 -129 76 -184 112 -188 122 -2 4 -9 7 -16 7
-6 0 -72 36 -145 80 -74 44 -137 77 -140 74 -3 -3 -7 -262 -8 -575 -2 -437 0
-571 10 -579 7 -6 38 -30 69 -54 32 -23 54 -46 51 -50 -4 -4 1 -4 12 0 15 6
17 4 12 -10 -5 -11 -2 -16 8 -14 8 2 100 -62 206 -141 145 -109 188 -146 178
-153 -11 -7 -9 -8 4 -4 23 7 80 -31 71 -46 -4 -7 -2 -8 4 -4 15 9 129 -79 147
-115 35 -67 28 -167 -16 -223 -49 -62 -158 -85 -231 -48 -57 30 -269 192 -263
203 3 5 -1 6 -9 3 -9 -4 -18 1 -22 10 -3 9 -11 16 -17 16 -5 0 -44 25 -85 56
-57 43 -71 59 -61 66 11 7 9 8 -5 4 -10 -4 -25 -1 -33 5 -7 7 -17 9 -21 5 -4
-4 -8 -146 -10 -314 -1 -174 -7 -324 -13 -346 -28 -104 -160 -156 -266 -105
-51 24 -79 58 -92 108 -6 20 -12 175 -15 345 -3 169 -7 310 -10 313 -3 3 -31
-15 -64 -40 -46 -36 -62 -43 -71 -34 -10 9 -11 8 -6 -4 4 -12 -8 -27 -44 -53
-52 -37 -67 -44 -56 -26 3 6 -1 7 -10 3 -12 -4 -13 -8 -5 -13 15 -9 -220 -188
-270 -206 -111 -41 -222 13 -251 120 -19 70 10 181 50 194 9 3 11 0 6 -8 -5
-8 -4 -11 3 -6 6 4 9 12 7 19 -5 16 83 80 97 71 6 -4 8 -3 4 4 -9 15 48 53 71
46 13 -4 14 -3 5 4 -10 7 24 37 135 121 81 61 153 114 158 119 6 4 28 21 50
37 22 17 44 34 50 38 5 4 35 26 65 48 30 22 62 46 71 54 15 12 17 66 16 589
-1 317 -4 576 -7 576 -7 0 -278 -159 -350 -205 -107 -68 -238 -145 -247 -145
-6 0 -16 -7 -23 -15 -6 -8 -46 -33 -88 -57 -118 -67 -144 -81 -192 -113 -25
-16 -54 -34 -65 -40 -15 -8 -22 -25 -27 -70 -4 -33 -12 -98 -18 -145 -6 -47
-20 -177 -31 -290 -35 -347 -46 -444 -54 -465 -11 -27 -66 -85 -81 -85 -7 0
-14 -5 -16 -10 -5 -15 -70 -23 -123 -15 -79 11 -155 103 -155 188 0 9 3 17 8
17 4 0 7 28 7 62 0 35 4 92 9 128 4 36 14 119 20 185 7 66 14 125 15 130 2 6
3 30 2 54 -1 37 -3 42 -18 35 -10 -4 -29 -7 -42 -7 -15 1 -19 -2 -12 -6 9 -6
4 -13 -14 -25 -14 -9 -31 -14 -37 -10 -7 5 -8 3 -3 -6 6 -10 4 -12 -9 -7 -10
4 -15 3 -11 -3 3 -5 -11 -19 -32 -30 -21 -12 -56 -32 -78 -45 -22 -14 -46 -23
-52 -20 -7 2 -12 -1 -10 -6 1 -6 -20 -24 -48 -39 -27 -15 -75 -44 -105 -64
-30 -20 -61 -34 -68 -31 -7 3 -11 1 -8 -4 7 -11 -27 -21 -70 -21 -63 0 -97 14
-141 56 -36 34 -43 47 -38 64 5 15 4 20 -4 16 -16 -10 -14 95 1 131 19 42 79
96 144 129 32 16 65 35 72 42 8 7 22 10 30 7 9 -3 13 -3 9 1 -10 10 61 56 75
48 6 -4 8 -3 5 3 -8 13 50 46 66 37 6 -4 9 -4 5 1 -11 11 60 58 74 49 7 -5 8
-3 3 6 -6 10 -4 12 11 6 10 -4 15 -4 12 0 -8 7 34 44 50 44 5 0 17 8 26 19 16
18 14 19 -41 41 -32 13 -77 31 -100 42 -23 10 -44 18 -48 18 -3 0 -24 8 -48
19 -23 10 -85 36 -139 57 -53 22 -94 42 -92 46 3 4 -1 5 -9 2 -19 -7 -105 37
-134 68 -31 33 -43 71 -43 134 0 39 3 53 12 48 7 -5 8 -3 4 5 -12 18 11 63 46
90 37 30 129 52 166 41 26 -8 65 -23 387 -155 77 -31 168 -68 202 -82 35 -14
61 -29 58 -33 -3 -4 5 -6 17 -3 17 3 19 2 10 -5 -10 -7 -6 -9 15 -9 15 0 61
-14 101 -31 l73 -32 39 26 c22 15 44 23 51 18 7 -4 10 -3 6 3 -8 12 20 26 34
17 5 -3 8 0 7 7 -2 6 3 14 11 17 9 3 11 0 6 -9 -5 -8 -4 -11 1 -6 5 5 9 14 9
20 0 7 5 12 10 12 6 0 30 14 55 31 87 60 242 144 252 138 6 -4 8 -3 5 3 -4 5
26 30 66 55 179 110 248 149 257 143 6 -4 9 -1 8 5 -3 10 114 86 170 110 12 5
22 13 22 17 0 7 -93 66 -185 117 -19 11 -31 24 -28 29 3 6 1 7 -5 3 -6 -4 -39
11 -72 34 -34 22 -64 40 -68 40 -18 0 -191 114 -185 123 3 6 1 7 -5 3 -11 -6
-260 137 -274 158 -4 6 -8 8 -8 3 0 -4 -11 0 -25 9 -14 9 -22 21 -18 27 3 6 1
7 -6 3 -6 -4 -37 7 -69 25 -54 30 -59 31 -102 20 -25 -7 -62 -21 -84 -32 -21
-11 -45 -18 -53 -15 -8 3 -12 2 -9 -3 3 -5 -2 -11 -12 -14 -9 -3 -73 -29 -142
-57 -69 -29 -133 -52 -143 -52 -9 0 -15 -3 -13 -7 7 -11 -62 -31 -82 -24 -10
4 -14 3 -10 -2 9 -9 -31 -29 -177 -88 -103 -42 -114 -44 -164 -36 -49 7 -69
17 -112 51 -23 19 -41 57 -35 74 3 9 1 12 -4 9 -14 -8 -13 96 1 132 6 15 20
39 32 51 29 31 115 75 134 68 8 -4 11 -2 7 5 -4 8 4 9 27 5 20 -3 26 -3 16 2
-14 6 1 15 65 41 46 18 97 39 113 47 84 39 216 83 232 78 15 -5 15 -4 3 5 -12
8 -10 12 10 19 24 9 23 11 -38 49 -34 22 -59 43 -55 48 5 4 2 5 -4 1 -15 -8
-234 124 -227 136 3 4 -1 5 -9 2 -8 -3 -21 1 -29 8 -7 7 -39 26 -70 41 -70 35
-140 100 -142 132 0 13 -4 21 -8 18 -5 -2 -8 22 -8 54 0 109 65 183 168 191
66 5 104 -8 186 -63 30 -19 74 -46 97 -59 24 -13 43 -28 42 -34 -2 -6 4 -9 12
-6 8 3 29 -5 47 -18 18 -12 51 -33 73 -45 22 -12 39 -27 37 -33 -1 -6 2 -9 8
-5 6 4 26 -4 46 -16 25 -15 32 -24 23 -29 -7 -5 -3 -8 12 -7 13 0 32 -3 42 -7
14 -7 17 -3 17 25 0 43 -28 335 -35 369 -3 14 -7 60 -9 103 -2 43 -7 81 -10
84 -20 20 13 129 50 164 21 20 27 21 35 9 8 -12 9 -10 4 7 -5 18 0 23 31 33
60 20 138 8 182 -27 75 -61 72 -47 122 -548 17 -180 30 -293 49 -439 4 -34 12
-52 26 -60 11 -6 22 -13 25 -16 3 -3 46 -30 97 -60 66 -39 90 -58 86 -69 -4
-12 -2 -13 4 -3 7 9 22 5 65 -18 31 -17 61 -37 68 -45 7 -8 17 -15 22 -15 5 0
62 -32 126 -71 250 -153 464 -279 471 -279 4 0 7 259 8 576 1 524 0 577 -15
589 -10 8 -42 32 -72 54 -30 22 -60 44 -65 48 -6 4 -28 21 -50 38 -22 16 -44
33 -50 37 -5 5 -76 58 -157 119 -140 105 -168 129 -132 115 9 -3 12 -2 9 5 -4
6 -14 8 -22 5 -18 -7 -76 31 -68 45 4 5 -1 6 -9 3 -9 -3 -20 3 -28 15 -7 12
-17 21 -22 21 -18 0 -76 52 -92 82 -9 17 -14 39 -11 49 3 12 1 17 -5 12 -16
-9 -3 98 16 136 35 67 138 105 221 82 26 -7 130 -78 288 -197 137 -102 251
-183 254 -181 2 3 7 144 9 314 3 169 9 324 14 344 14 50 46 88 94 110 43 20
142 26 131 9z"/>
</g>
</svg>
